# xmcd CD database file
#
# Track frame offsets:
#	150
#	21677
#	38817
#
# Disc length: 805 seconds
#
# Revision: 0
# Processed by: cddbd v1.5.1PL0 Copyright (c) Steve Scherf et al.
# Submitted via: CDex 1.50
#
DISCID=22032303
DTITLE=BAAD - 恋してはじめて知った君
DYEAR=1998
DGENRE=J-POP
TTITLE0=恋してはじめて知った君
TTITLE1=NAKED
TTITLE2=恋してはじめて知った君(original karaoke)
EXTD=YEAR: 1998
EXTT0=
EXTT1=
EXTT2=
PLAYORDER=
